<svg xmlns="http://www.w3.org/2000/svg" version="1.1" xmlns:xlink="http://www.w3.org/1999/xlink" width="512" height="512" x="0" y="0" viewBox="0 0 512 512" style="enable-background:new 0 0 512 512" xml:space="preserve" class=""><g><g fill="#fed402"><circle cx="176.39" cy="63.836" r="16" fill="#fed402" opacity="1" data-original="#fed402" class=""></circle><circle cx="335.61" cy="448.228" r="16" fill="#fed402" opacity="1" data-original="#fed402" class=""></circle></g><g fill="#fed402"><circle cx="63.804" cy="176.422" r="16" fill="#fed402" opacity="1" data-original="#fed402" class=""></circle><circle cx="448.196" cy="335.642" r="16" fill="#fed402" opacity="1" data-original="#fed402" class=""></circle></g><g fill="#fed402"><circle cx="63.804" cy="335.642" r="16" fill="#fed402" opacity="1" data-original="#fed402" class=""></circle><circle cx="448.196" cy="176.422" r="16" fill="#fed402" opacity="1" data-original="#fed402" class=""></circle></g><g fill="#fed402"><circle cx="176.39" cy="448.228" r="16" fill="#fed402" opacity="1" data-original="#fed402" class=""></circle><circle cx="335.61" cy="63.836" r="16" fill="#fed402" opacity="1" data-original="#fed402" class=""></circle></g><circle cx="256" cy="256.001" r="160.001" fill="#fed402" opacity="1" data-original="#fed402" class=""></circle><path fill="#fac600" d="M147.509 256.001c0-79.597 58.133-145.619 134.252-157.938A161.187 161.187 0 0 0 256 96c-88.366 0-160.001 71.635-160.001 160.001s71.635 160 160.001 160c8.769 0 17.37-.705 25.755-2.062-76.119-12.319-134.246-78.341-134.246-157.938z" opacity="1" data-original="#fac600" class=""></path><g fill="#fed402"><path d="M255.531 0h.938C265.047 0 272 6.954 272 15.531v32.938C272 57.047 265.047 64 256.469 64h-.938C246.953 64 240 57.047 240 48.469V15.531C240 6.954 246.953 0 255.531 0zM255.531 448h.938c8.578 0 15.531 6.954 15.531 15.531v32.938c0 8.578-6.954 15.531-15.531 15.531h-.938c-8.578 0-15.531-6.954-15.531-15.531v-32.938c0-8.578 6.953-15.531 15.531-15.531z" fill="#fed402" opacity="1" data-original="#fed402" class=""></path></g><g fill="#fed402"><path d="m74.649 75.312.663-.663c6.065-6.065 15.899-6.065 21.964 0l23.291 23.291c6.065 6.065 6.065 15.899 0 21.964l-.663.663c-6.065 6.065-15.899 6.065-21.964 0l-23.291-23.29c-6.065-6.066-6.065-15.899 0-21.965zM391.433 392.096l.663-.663c6.065-6.065 15.899-6.065 21.964 0l23.291 23.291c6.065 6.065 6.065 15.899 0 21.964l-.663.663c-6.065 6.065-15.899 6.065-21.964 0l-23.291-23.291c-6.065-6.065-6.065-15.899 0-21.964z" fill="#fed402" opacity="1" data-original="#fed402" class=""></path></g><g fill="#fed402"><path d="M0 256.469v-.938C0 246.953 6.954 240 15.531 240h32.938C57.047 240 64 246.953 64 255.531v.938C64 265.047 57.047 272 48.469 272H15.531C6.954 272 0 265.047 0 256.469zM448 256.469v-.938c0-8.578 6.954-15.531 15.531-15.531h32.938c8.578 0 15.531 6.954 15.531 15.531v.938c0 8.578-6.954 15.531-15.531 15.531h-32.938c-8.578 0-15.531-6.953-15.531-15.531z" fill="#fed402" opacity="1" data-original="#fed402" class=""></path></g><g fill="#fed402"><path d="m75.312 437.351-.663-.663c-6.065-6.065-6.065-15.899 0-21.964l23.291-23.291c6.065-6.065 15.899-6.065 21.964 0l.663.663c6.065 6.065 6.065 15.899 0 21.964l-23.291 23.291c-6.065 6.065-15.898 6.065-21.964 0zM392.096 120.567l-.663-.663c-6.065-6.065-6.065-15.899 0-21.964l23.291-23.291c6.065-6.065 15.899-6.065 21.964 0l.663.663c6.065 6.065 6.065 15.899 0 21.964l-23.291 23.291c-6.065 6.065-15.899 6.065-21.964 0z" fill="#fed402" opacity="1" data-original="#fed402" class=""></path></g></g></svg>